<svg width="83" height="44" fill="none" xmlns="http://www.w3.org/2000/svg"><path d="M.928 43V4.12h7.92v33.504h9.12V43H.928zm25.566 0V4.12H38.83c2.336 0 4.24.448 5.712 1.344 1.472.864 2.56 2.128 3.264 3.792.736 1.664 1.104 3.68 1.104 6.048 0 2.784-.48 4.96-1.44 6.528-.928 1.568-2.208 2.688-3.84 3.36-1.632.64-3.504.96-5.616.96h-3.6V43h-7.92zm7.92-22.416h2.784c1.152 0 2.032-.176 2.64-.528.64-.384 1.072-.976 1.296-1.776.224-.8.336-1.824.336-3.072 0-1.184-.096-2.176-.288-2.976-.16-.8-.544-1.424-1.152-1.872-.608-.448-1.568-.672-2.88-.672h-2.736v10.896zm34.164 22.944c-2.88 0-5.168-.544-6.864-1.632-1.664-1.088-2.832-2.592-3.504-4.512-.672-1.952-1.008-4.208-1.008-6.768V16.648c0-2.688.336-4.992 1.008-6.912.672-1.952 1.84-3.456 3.504-4.512 1.696-1.056 3.984-1.584 6.864-1.584 2.784 0 4.96.464 6.528 1.392 1.6.928 2.72 2.24 3.36 3.936.672 1.696 1.008 3.664 1.008 5.904v3.264h-7.68v-3.648c0-.896-.048-1.728-.144-2.496-.096-.8-.368-1.44-.816-1.92-.416-.512-1.152-.768-2.208-.768-1.056 0-1.824.256-2.304.768-.48.512-.784 1.184-.912 2.016-.128.8-.192 1.696-.192 2.688V32.44c0 1.088.08 2.048.24 2.88.192.8.528 1.424 1.008 1.872.512.416 1.232.624 2.16.624 1.024 0 1.744-.24 2.16-.72.448-.512.72-1.184.816-2.016.128-.832.192-1.712.192-2.64v-3.792h7.68v3.216c0 2.272-.32 4.288-.96 6.048-.64 1.728-1.744 3.104-3.312 4.128-1.568.992-3.776 1.488-6.624 1.488z" fill="#21354D"/><path d="M.928 40V1.12h7.92v33.504h9.12V40H.928zm25.566 0V1.12H38.83c2.336 0 4.24.448 5.712 1.344 1.472.864 2.56 2.128 3.264 3.792.736 1.664 1.104 3.68 1.104 6.048 0 2.784-.48 4.96-1.44 6.528-.928 1.568-2.208 2.688-3.84 3.36-1.632.64-3.504.96-5.616.96h-3.6V40h-7.92zm7.92-22.416h2.784c1.152 0 2.032-.176 2.64-.528.64-.384 1.072-.976 1.296-1.776.224-.8.336-1.824.336-3.072 0-1.184-.096-2.176-.288-2.976-.16-.8-.544-1.424-1.152-1.872-.608-.448-1.568-.672-2.88-.672h-2.736v10.896zm34.164 22.944c-2.88 0-5.168-.544-6.864-1.632-1.664-1.088-2.832-2.592-3.504-4.512-.672-1.952-1.008-4.208-1.008-6.768V13.648c0-2.688.336-4.992 1.008-6.912.672-1.952 1.84-3.456 3.504-4.512C63.41 1.168 65.698.64 68.578.64c2.784 0 4.96.464 6.528 1.392 1.6.928 2.72 2.24 3.36 3.936.672 1.696 1.008 3.664 1.008 5.904v3.264h-7.68v-3.648c0-.896-.048-1.728-.144-2.496-.096-.8-.368-1.44-.816-1.92-.416-.512-1.152-.768-2.208-.768-1.056 0-1.824.256-2.304.768-.48.512-.784 1.184-.912 2.016-.128.8-.192 1.696-.192 2.688V29.44c0 1.088.08 2.048.24 2.88.192.8.528 1.424 1.008 1.872.512.416 1.232.624 2.16.624 1.024 0 1.744-.24 2.16-.72.448-.512.72-1.184.816-2.016.128-.832.192-1.712.192-2.64v-3.792h7.68v3.216c0 2.272-.32 4.288-.96 6.048-.64 1.728-1.744 3.104-3.312 4.128-1.568.992-3.776 1.488-6.624 1.488z" fill="#21354D"/><path d="M3.928 43V4.12h7.92v33.504h9.12V43H3.928zm25.566 0V4.12H41.83c2.336 0 4.24.448 5.712 1.344 1.472.864 2.56 2.128 3.264 3.792.736 1.664 1.104 3.68 1.104 6.048 0 2.784-.48 4.96-1.44 6.528-.928 1.568-2.208 2.688-3.84 3.36-1.632.64-3.504.96-5.616.96h-3.6V43h-7.92zm7.92-22.416h2.784c1.152 0 2.032-.176 2.64-.528.64-.384 1.072-.976 1.296-1.776.224-.8.336-1.824.336-3.072 0-1.184-.096-2.176-.288-2.976-.16-.8-.544-1.424-1.152-1.872-.608-.448-1.568-.672-2.88-.672h-2.736v10.896zm34.164 22.944c-2.88 0-5.168-.544-6.864-1.632-1.664-1.088-2.832-2.592-3.504-4.512-.672-1.952-1.008-4.208-1.008-6.768V16.648c0-2.688.336-4.992 1.008-6.912.672-1.952 1.84-3.456 3.504-4.512 1.696-1.056 3.984-1.584 6.864-1.584 2.784 0 4.96.464 6.528 1.392 1.6.928 2.72 2.24 3.36 3.936.672 1.696 1.008 3.664 1.008 5.904v3.264h-7.68v-3.648c0-.896-.048-1.728-.144-2.496-.096-.8-.368-1.44-.816-1.92-.416-.512-1.152-.768-2.208-.768-1.056 0-1.824.256-2.304.768-.48.512-.784 1.184-.912 2.016-.128.8-.192 1.696-.192 2.688V32.44c0 1.088.08 2.048.24 2.88.192.8.528 1.424 1.008 1.872.512.416 1.232.624 2.16.624 1.024 0 1.744-.24 2.16-.72.448-.512.72-1.184.816-2.016.128-.832.192-1.712.192-2.64v-3.792h7.68v3.216c0 2.272-.32 4.288-.96 6.048-.64 1.728-1.744 3.104-3.312 4.128-1.568.992-3.776 1.488-6.624 1.488z" fill="#21354D"/><path d="M3.928 40V1.12h7.92v33.504h9.12V40H3.928zm25.566 0V1.12H41.83c2.336 0 4.24.448 5.712 1.344 1.472.864 2.56 2.128 3.264 3.792.736 1.664 1.104 3.68 1.104 6.048 0 2.784-.48 4.96-1.44 6.528-.928 1.568-2.208 2.688-3.84 3.36-1.632.64-3.504.96-5.616.96h-3.6V40h-7.92zm7.92-22.416h2.784c1.152 0 2.032-.176 2.64-.528.64-.384 1.072-.976 1.296-1.776.224-.8.336-1.824.336-3.072 0-1.184-.096-2.176-.288-2.976-.16-.8-.544-1.424-1.152-1.872-.608-.448-1.568-.672-2.88-.672h-2.736v10.896zm34.164 22.944c-2.88 0-5.168-.544-6.864-1.632-1.664-1.088-2.832-2.592-3.504-4.512-.672-1.952-1.008-4.208-1.008-6.768V13.648c0-2.688.336-4.992 1.008-6.912.672-1.952 1.84-3.456 3.504-4.512C66.41 1.168 68.698.64 71.578.64c2.784 0 4.96.464 6.528 1.392 1.6.928 2.72 2.24 3.36 3.936.672 1.696 1.008 3.664 1.008 5.904v3.264h-7.68v-3.648c0-.896-.048-1.728-.144-2.496-.096-.8-.368-1.44-.816-1.92-.416-.512-1.152-.768-2.208-.768-1.056 0-1.824.256-2.304.768-.48.512-.784 1.184-.912 2.016-.128.8-.192 1.696-.192 2.688V29.44c0 1.088.08 2.048.24 2.88.192.8.528 1.424 1.008 1.872.512.416 1.232.624 2.16.624 1.024 0 1.744-.24 2.16-.72.448-.512.72-1.184.816-2.016.128-.832.192-1.712.192-2.64v-3.792h7.68v3.216c0 2.272-.32 4.288-.96 6.048-.64 1.728-1.744 3.104-3.312 4.128-1.568.992-3.776 1.488-6.624 1.488z" fill="#F4A444"/></svg>